<svg viewBox="0 0 258.31 24.08" xmlns="http://www.w3.org/2000/svg"><path d="m98.28 24.08v-24.08h2.52v24.08z" fill="#c6c9d0"/><g fill="#2e4156"><path d="m0 2.94h4.71l7.48 9.62v-9.62h5v18.2h-4.42l-7.77-9.99v10h-5z"/><path d="m30.55 2.94h5.33l4.34 7 4.34-7h5.33v18.2h-5v-10.45l-4.66 7.12h-.1l-4.63-7.07v10.4h-4.95z"/><path d="m61.88 18.43 2.81-3.35a9.35 9.35 0 0 0 5.9 2.18c1.35 0 2.08-.46 2.08-1.24v-.02c0-.75-.6-1.17-3.07-1.74-3.87-.88-6.86-2-6.86-5.72v-.09c0-3.38 2.68-5.82 7-5.82a11.47 11.47 0 0 1 7.53 2.37l-2.52 3.61a9.12 9.12 0 0 0 -5.1-1.8c-1.22 0-1.82.52-1.82 1.17v.02c0 .84.63 1.2 3.15 1.77 4.19.91 6.79 2.26 6.79 5.67 0 3.72-2.94 5.93-7.36 5.93a12.68 12.68 0 0 1 -8.53-2.94z"/><path d="m136.15 19.56a9.65 9.65 0 0 1 -1.65 1 8.84 8.84 0 0 1 -1.94.65 11.18 11.18 0 0 1 -2.33.22 9.17 9.17 0 0 1 -3.69-.73 8.9 8.9 0 0 1 -2.92-2 9.1 9.1 0 0 1 -1.94-3 9.67 9.67 0 0 1 -.7-3.7 9.69 9.69 0 0 1 .69-3.66 9 9 0 0 1 4.9-5 9.35 9.35 0 0 1 3.79-.74 12.32 12.32 0 0 1 2.28.2 9.4 9.4 0 0 1 1.88.59 8.82 8.82 0 0 1 1.59.9 12.27 12.27 0 0 1 1.38 1.14l-2.06 2.37a10.08 10.08 0 0 0 -2.31-1.64 6 6 0 0 0 -2.78-.63 5.69 5.69 0 0 0 -2.41.51 6 6 0 0 0 -1.93 1.41 6.23 6.23 0 0 0 -1.25 2 7.18 7.18 0 0 0 -.44 2.52 7.33 7.33 0 0 0 .44 2.54 6.32 6.32 0 0 0 1.25 2.1 5.78 5.78 0 0 0 4.32 1.9 6 6 0 0 0 2.86-.64 11.47 11.47 0 0 0 2.36-1.72l2.06 2.08a12.1 12.1 0 0 1 -1.45 1.33z"/><path d="m162.29 21.14h-3.38l-1.85-4.4h-8.6l-1.87 4.4h-3.28l8-18.33h3zm-9.54-14.51-3.12 7.28h6.26z"/><path d="m182.83 11.75a5.55 5.55 0 0 1 -1.57 1.95 6.82 6.82 0 0 1 -2.26 1.18 9.77 9.77 0 0 1 -2.85.41h-3.62v5.85h-3.17v-18.2h7.18a9 9 0 0 1 2.87.43 6 6 0 0 1 2.18 1.23 5.43 5.43 0 0 1 1.38 1.93 6.29 6.29 0 0 1 .48 2.52 6.09 6.09 0 0 1 -.62 2.7zm-3.75-5.1a4.58 4.58 0 0 0 -2.87-.83h-3.73v6.58h3.73a4.28 4.28 0 0 0 2.88-.9 3 3 0 0 0 1.06-2.39 2.91 2.91 0 0 0 -1.07-2.46z"/><path d="m193.93 2.94v18.2h-3.17v-18.2z"/><path d="m210.42 21.14h-3.23v-15.24h-5.77v-3h14.77v3h-5.77z"/><path d="m238.55 21.14h-3.38l-1.85-4.4h-8.61l-1.87 4.4h-3.27l8-18.33h3zm-9.55-14.51-3.12 7.28h6.27z"/><path d="m245.57 2.94h3.17v15.31h9.57v2.89h-12.74z"/></g></svg>